<svg xmlns="http://www.w3.org/2000/svg" viewBox="0 0 64 64">
  <!-- Background with subtle gradient -->
  <defs>
    <linearGradient id="bg-gradient" x1="0%" y1="0%" x2="100%" y2="100%">
      <stop offset="0%" stop-color="#1e40af" />
      <stop offset="100%" stop-color="#3b82f6" />
    </linearGradient>
  </defs>
  
  <!-- Rounded square background -->
  <rect width="64" height="64" rx="16" fill="url(#bg-gradient)" />
  
  <!-- Document with folded corner -->
  <path d="M16 14C16 12.8954 16.8954 12 18 12H38L48 22V50C48 51.1046 47.1046 52 46 52H18C16.8954 52 16 51.1046 16 50V14Z" fill="white" />
  <path d="M38 12L48 22H40C38.8954 22 38 21.1046 38 20V12Z" fill="#dbeafe" />
  
  <!-- Document lines -->
  <rect x="22" y="30" width="20" height="2" rx="1" fill="#93c5fd" />
  <rect x="22" y="36" width="20" height="2" rx="1" fill="#93c5fd" />
  <rect x="22" y="42" width="14" height="2" rx="1" fill="#93c5fd" />
  
  <!-- PO text in blue box -->
  <rect x="22" y="18" width="20" height="8" rx="2" fill="#2563eb" />
  <text x="26" y="24.5" font-family="Arial, sans-serif" font-weight="bold" font-size="8" fill="white">PO-001</text>
</svg>
